<?xml version="1.0" standalone="no"?>
<!DOCTYPE svg PUBLIC "-//W3C//DTD SVG 20010904//EN"
 "http://www.w3.org/TR/2001/REC-SVG-20010904/DTD/svg10.dtd">
<svg version="1.0" xmlns="http://www.w3.org/2000/svg"
 width="700.000000pt" height="700.000000pt" viewBox="0 0 700.000000 700.000000"
 preserveAspectRatio="xMidYMid meet">
<metadata>
Created by OctoFHIR Docs
</metadata>
<g transform="translate(0.000000,700.000000) scale(0.100000,-0.100000)"
fill="#000000" stroke="none">
<path d="M3385 6594 c-397 -53 -727 -206 -1010 -468 -310 -288 -512 -651 -590 -1061 -26 -139 -31 -434 -10 -580 57 -402 225 -757 492 -1034 363 -373 862 -568 1393 -538 494 28 934 222 1286 569 312 309 503 693 569 1143 22 151 16 448 -11 587 -77 410 -281 774 -592 1063 -343 319 -774 503 -1247 534 -131 8 -143 8 -280 -15z"/>
</g>
</svg>

